G04*
G04 #@! TF.GenerationSoftware,Altium Limited,Altium Designer,21.0.9 (235)*
G04*
G04 Layer_Color=8388736*
%FSLAX25Y25*%
%MOIN*%
G70*
G04*
G04 #@! TF.SameCoordinates,16CFF4CE-520A-4318-93EF-9E40710CEDB3*
G04*
G04*
G04 #@! TF.FilePolarity,Negative*
G04*
G01*
G75*
%ADD15R,0.02756X0.03937*%
%ADD16R,0.02756X0.01181*%
%ADD17R,0.01802X0.02400*%
%ADD18R,0.03175X0.05151*%
%ADD19R,0.02762X0.03550*%
%ADD20R,0.06299X0.01968*%
%ADD21R,0.05715X0.01975*%
%ADD22R,0.05715X0.02762*%
%ADD23R,0.05938X0.04750*%
%ADD24R,0.03983X0.05203*%
%ADD25R,0.06528X0.03764*%
G04:AMPARAMS|DCode=26|XSize=43.31mil|YSize=23.62mil|CornerRadius=2.01mil|HoleSize=0mil|Usage=FLASHONLY|Rotation=0.000|XOffset=0mil|YOffset=0mil|HoleType=Round|Shape=RoundedRectangle|*
%AMROUNDEDRECTD26*
21,1,0.04331,0.01961,0,0,0.0*
21,1,0.03929,0.02362,0,0,0.0*
1,1,0.00402,0.01965,-0.00980*
1,1,0.00402,-0.01965,-0.00980*
1,1,0.00402,-0.01965,0.00980*
1,1,0.00402,0.01965,0.00980*
%
%ADD26ROUNDEDRECTD26*%
%ADD27O,0.03156X0.10243*%
%ADD28R,0.05124X0.04731*%
%ADD29R,0.03747X0.05715*%
%ADD30R,0.22047X0.08268*%
G04:AMPARAMS|DCode=31|XSize=43.31mil|YSize=102.36mil|CornerRadius=21.65mil|HoleSize=0mil|Usage=FLASHONLY|Rotation=270.000|XOffset=0mil|YOffset=0mil|HoleType=Round|Shape=RoundedRectangle|*
%AMROUNDEDRECTD31*
21,1,0.04331,0.05906,0,0,270.0*
21,1,0.00000,0.10236,0,0,270.0*
1,1,0.04331,-0.02953,0.00000*
1,1,0.04331,-0.02953,0.00000*
1,1,0.04331,0.02953,0.00000*
1,1,0.04331,0.02953,0.00000*
%
%ADD31ROUNDEDRECTD31*%
G04:AMPARAMS|DCode=32|XSize=43.31mil|YSize=82.68mil|CornerRadius=21.65mil|HoleSize=0mil|Usage=FLASHONLY|Rotation=270.000|XOffset=0mil|YOffset=0mil|HoleType=Round|Shape=RoundedRectangle|*
%AMROUNDEDRECTD32*
21,1,0.04331,0.03937,0,0,270.0*
21,1,0.00000,0.08268,0,0,270.0*
1,1,0.04331,-0.01968,0.00000*
1,1,0.04331,-0.01968,0.00000*
1,1,0.04331,0.01968,0.00000*
1,1,0.04331,0.01968,0.00000*
%
%ADD32ROUNDEDRECTD32*%
%ADD33R,0.06502X0.06502*%
%ADD34C,0.06502*%
%ADD35P,0.09196X4X180.0*%
%ADD36C,0.05400*%
D15*
X370724Y335795D02*
D03*
Y360205D02*
D03*
X391260Y369224D02*
D03*
X398740D02*
D03*
Y359776D02*
D03*
X395000D02*
D03*
X391260D02*
D03*
D16*
X370724Y356858D02*
D03*
Y354890D02*
D03*
Y352921D02*
D03*
Y350953D02*
D03*
Y348984D02*
D03*
Y347016D02*
D03*
Y345047D02*
D03*
Y343079D02*
D03*
Y341110D02*
D03*
Y339142D02*
D03*
X375842Y336189D02*
D03*
Y338158D02*
D03*
Y340126D02*
D03*
Y342094D02*
D03*
Y344063D02*
D03*
Y346031D02*
D03*
Y349969D02*
D03*
Y351937D02*
D03*
Y353906D02*
D03*
Y355874D02*
D03*
Y357842D02*
D03*
Y359811D02*
D03*
D17*
X503000Y348951D02*
D03*
X501031Y354049D02*
D03*
X504969D02*
D03*
D18*
X518200Y349000D02*
D03*
X511500D02*
D03*
D19*
X415740Y368831D02*
D03*
X408260D02*
D03*
X412000Y360169D02*
D03*
D20*
X427193Y400457D02*
D03*
Y404000D02*
D03*
Y407543D02*
D03*
X438807D02*
D03*
Y404000D02*
D03*
Y400457D02*
D03*
X389693Y302957D02*
D03*
Y306500D02*
D03*
Y310043D02*
D03*
X401307D02*
D03*
Y306500D02*
D03*
Y302957D02*
D03*
D21*
X477016Y390457D02*
D03*
Y393016D02*
D03*
Y395575D02*
D03*
Y387898D02*
D03*
Y385339D02*
D03*
X453984D02*
D03*
Y387898D02*
D03*
Y395575D02*
D03*
Y393016D02*
D03*
Y390457D02*
D03*
Y382780D02*
D03*
Y380221D02*
D03*
Y377661D02*
D03*
Y375102D02*
D03*
Y367425D02*
D03*
Y369984D02*
D03*
Y372543D02*
D03*
X477016D02*
D03*
Y369984D02*
D03*
Y367425D02*
D03*
Y375102D02*
D03*
Y377661D02*
D03*
Y380221D02*
D03*
Y382780D02*
D03*
D22*
X453984Y398528D02*
D03*
Y364472D02*
D03*
X477016D02*
D03*
Y398528D02*
D03*
D23*
X392500Y388363D02*
D03*
Y396637D02*
D03*
X488500Y367363D02*
D03*
Y375637D02*
D03*
D24*
X413937Y350500D02*
D03*
X401063D02*
D03*
D25*
X426500Y384000D02*
D03*
Y373558D02*
D03*
D26*
X523618Y369240D02*
D03*
Y361760D02*
D03*
X513382D02*
D03*
Y365500D02*
D03*
Y369240D02*
D03*
D27*
X432500Y316917D02*
D03*
X437500D02*
D03*
X442500D02*
D03*
X447500D02*
D03*
X432500Y344083D02*
D03*
X437500D02*
D03*
X442500D02*
D03*
X447500D02*
D03*
D28*
X381500Y398520D02*
D03*
Y390252D02*
D03*
D29*
X407252Y379000D02*
D03*
X413748D02*
D03*
D30*
X460153Y284500D02*
D03*
X422752D02*
D03*
D31*
X353126Y330992D02*
D03*
Y365008D02*
D03*
D32*
X374228Y330992D02*
D03*
Y365008D02*
D03*
D33*
X478000Y333000D02*
D03*
D34*
Y323000D02*
D03*
Y313000D02*
D03*
X488000Y333000D02*
D03*
Y323000D02*
D03*
Y313000D02*
D03*
X541000Y320213D02*
D03*
X533929Y313142D02*
D03*
X526858Y306071D02*
D03*
X519787Y299000D02*
D03*
X543000Y377287D02*
D03*
X528858Y391429D02*
D03*
X535929Y384358D02*
D03*
X543000Y419713D02*
D03*
X564213Y398500D02*
D03*
D35*
X521787D02*
D03*
D36*
X383500Y335000D02*
D03*
X383000Y347500D02*
D03*
X503000Y375500D02*
D03*
X526000Y352000D02*
D03*
X435000Y353500D02*
D03*
X465000Y367500D02*
D03*
X501463Y359963D02*
D03*
X486500Y345000D02*
D03*
X441083Y302000D02*
D03*
X459500Y294000D02*
D03*
X422500Y295000D02*
D03*
X488422Y391578D02*
D03*
X498500Y396000D02*
D03*
X473000Y412500D02*
D03*
X419500Y404000D02*
D03*
X457000Y316500D02*
D03*
X399000Y319000D02*
D03*
X381000Y306500D02*
D03*
X406000Y360000D02*
D03*
Y387500D02*
D03*
X391000Y375000D02*
D03*
X381000Y375500D02*
D03*
X384000Y356000D02*
D03*
M02*
