G04*
G04 #@! TF.GenerationSoftware,Altium Limited,Altium Designer,21.0.9 (235)*
G04*
G04 Layer_Color=16711935*
%FSLAX25Y25*%
%MOIN*%
G70*
G04*
G04 #@! TF.SameCoordinates,16CFF4CE-520A-4318-93EF-9E40710CEDB3*
G04*
G04*
G04 #@! TF.FilePolarity,Negative*
G04*
G01*
G75*
%ADD18R,0.03175X0.05151*%
G04:AMPARAMS|DCode=31|XSize=43.31mil|YSize=102.36mil|CornerRadius=21.65mil|HoleSize=0mil|Usage=FLASHONLY|Rotation=270.000|XOffset=0mil|YOffset=0mil|HoleType=Round|Shape=RoundedRectangle|*
%AMROUNDEDRECTD31*
21,1,0.04331,0.05906,0,0,270.0*
21,1,0.00000,0.10236,0,0,270.0*
1,1,0.04331,-0.02953,0.00000*
1,1,0.04331,-0.02953,0.00000*
1,1,0.04331,0.02953,0.00000*
1,1,0.04331,0.02953,0.00000*
%
%ADD31ROUNDEDRECTD31*%
G04:AMPARAMS|DCode=32|XSize=43.31mil|YSize=82.68mil|CornerRadius=21.65mil|HoleSize=0mil|Usage=FLASHONLY|Rotation=270.000|XOffset=0mil|YOffset=0mil|HoleType=Round|Shape=RoundedRectangle|*
%AMROUNDEDRECTD32*
21,1,0.04331,0.03937,0,0,270.0*
21,1,0.00000,0.08268,0,0,270.0*
1,1,0.04331,-0.01968,0.00000*
1,1,0.04331,-0.01968,0.00000*
1,1,0.04331,0.01968,0.00000*
1,1,0.04331,0.01968,0.00000*
%
%ADD32ROUNDEDRECTD32*%
%ADD33R,0.06502X0.06502*%
%ADD34C,0.06502*%
%ADD35P,0.09196X4X180.0*%
%ADD36C,0.05400*%
%ADD64R,0.03740X0.05512*%
%ADD65R,0.03740X0.05315*%
%ADD66R,0.04928X0.06109*%
%ADD67R,0.06502X0.05715*%
%ADD68R,0.05124X0.06109*%
D18*
X399000Y311500D02*
D03*
X392300D02*
D03*
X435850Y408500D02*
D03*
X429150D02*
D03*
X398850Y301500D02*
D03*
X392150D02*
D03*
X435897Y399000D02*
D03*
X429197D02*
D03*
D31*
X353126Y330992D02*
D03*
Y365008D02*
D03*
D32*
X374228Y330992D02*
D03*
Y365008D02*
D03*
D33*
X511358Y375500D02*
D03*
X518642D02*
D03*
X478000Y333000D02*
D03*
D34*
Y323000D02*
D03*
Y313000D02*
D03*
X488000Y333000D02*
D03*
Y323000D02*
D03*
Y313000D02*
D03*
X541000Y320213D02*
D03*
X533929Y313142D02*
D03*
X526858Y306071D02*
D03*
X519787Y299000D02*
D03*
X543000Y377287D02*
D03*
X528858Y391429D02*
D03*
X535929Y384358D02*
D03*
X543000Y419713D02*
D03*
X564213Y398500D02*
D03*
D35*
X521787D02*
D03*
D36*
X383500Y335000D02*
D03*
X383000Y347500D02*
D03*
X503000Y375500D02*
D03*
X526000Y352000D02*
D03*
X435000Y353500D02*
D03*
X465000Y367500D02*
D03*
X501463Y359963D02*
D03*
X486500Y345000D02*
D03*
X441083Y302000D02*
D03*
X459500Y294000D02*
D03*
X422500Y295000D02*
D03*
X488422Y391578D02*
D03*
X498500Y396000D02*
D03*
X473000Y412500D02*
D03*
X419500Y404000D02*
D03*
X457000Y316500D02*
D03*
X399000Y319000D02*
D03*
X381000Y306500D02*
D03*
X406000Y360000D02*
D03*
Y387500D02*
D03*
X391000Y375000D02*
D03*
X381000Y375500D02*
D03*
X384000Y356000D02*
D03*
D64*
X398642Y364500D02*
D03*
X391358D02*
D03*
X469142Y400000D02*
D03*
X461858D02*
D03*
X443142Y331000D02*
D03*
X435858D02*
D03*
D65*
X520547Y320000D02*
D03*
X526453D02*
D03*
X452953Y294000D02*
D03*
X447047D02*
D03*
X428047Y294500D02*
D03*
X433953D02*
D03*
D66*
X469000Y387000D02*
D03*
X462110D02*
D03*
X468945Y376500D02*
D03*
X462055D02*
D03*
D67*
X393500Y338339D02*
D03*
Y330661D02*
D03*
D68*
X411846Y373000D02*
D03*
X405154D02*
D03*
M02*
