M48
;Layer_Color=9474304
;FILE_FORMAT=2:4
INCH,TZ
;TYPE=PLATED
T2F00S00C0.0280
T3F00S00C0.0398
T4F00S00C0.0402
;TYPE=NON_PLATED
T5F00S00C0.0252
%
T02
X38100Y30650
X42250Y29500
X44108Y30200
X45950Y29400
X45700Y31650
X43500Y35350
X40600Y36000
X38400Y35600
X38300Y34750
X38350Y33500
X39900Y31900
X39100Y37500
X38100Y37550
X40600Y38750
X41950Y40400
X46500Y36750
X48650Y34500
X50146Y35996
X50300Y37550
X49850Y39600
X48842Y39158
X47300Y41250
X52600Y35200
T03
X51979Y29900
X52686Y30607
X53393Y31314
X54100Y32021
X54300Y37729
X53593Y38436
X52886Y39143
X52179Y39850
X54300Y41971
X56421Y39850
T04
X47800Y31300
Y32300
Y33300
X48800
Y32300
Y31300
T05
X54100Y27779
X56221Y29900
M30
