G04*
G04 #@! TF.GenerationSoftware,Altium Limited,Altium Designer,21.0.9 (235)*
G04*
G04 Layer_Physical_Order=2*
G04 Layer_Color=32768*
%FSLAX25Y25*%
%MOIN*%
G70*
G04*
G04 #@! TF.SameCoordinates,16CFF4CE-520A-4318-93EF-9E40710CEDB3*
G04*
G04*
G04 #@! TF.FilePolarity,Negative*
G04*
G01*
G75*
%ADD51C,0.04000*%
%ADD52O,0.12268X0.06362*%
%ADD53O,0.10299X0.06362*%
%ADD54C,0.08016*%
G04:AMPARAMS|DCode=55|XSize=100.157mil|YSize=100.157mil|CornerRadius=0mil|HoleSize=0mil|Usage=FLASHONLY|Rotation=0.000|XOffset=0mil|YOffset=0mil|HoleType=Round|Shape=Relief|Width=10mil|Gap=10mil|Entries=4|*
%AMTHD55*
7,0,0,0.10016,0.08016,0.01000,45*
%
%ADD55THD55*%
%ADD56C,0.07976*%
G04:AMPARAMS|DCode=57|XSize=99.764mil|YSize=99.764mil|CornerRadius=0mil|HoleSize=0mil|Usage=FLASHONLY|Rotation=0.000|XOffset=0mil|YOffset=0mil|HoleType=Round|Shape=Relief|Width=10mil|Gap=10mil|Entries=4|*
%AMTHD57*
7,0,0,0.09976,0.07976,0.01000,45*
%
%ADD57THD57*%
%ADD58C,0.06520*%
G04:AMPARAMS|DCode=59|XSize=88mil|YSize=88mil|CornerRadius=0mil|HoleSize=0mil|Usage=FLASHONLY|Rotation=0.000|XOffset=0mil|YOffset=0mil|HoleType=Round|Shape=Relief|Width=10mil|Gap=10mil|Entries=4|*
%AMTHD59*
7,0,0,0.08800,0.06800,0.01000,45*
%
%ADD59THD59*%
%ADD60C,0.06800*%
G36*
X367394Y415039D02*
X368850Y414436D01*
X370160Y413560D01*
X371275Y412446D01*
X372150Y411136D01*
X372753Y409680D01*
X373061Y408134D01*
Y407346D01*
Y406558D01*
X372753Y405013D01*
X372150Y403557D01*
X371275Y402247D01*
X370160Y401132D01*
X368850Y400257D01*
X367394Y399654D01*
X365849Y399346D01*
X364273D01*
X362727Y399654D01*
X361271Y400257D01*
X359961Y401132D01*
X358847Y402247D01*
X357971Y403557D01*
X357368Y405013D01*
X357061Y406558D01*
Y407346D01*
Y408134D01*
X357368Y409680D01*
X357971Y411136D01*
X358847Y412446D01*
X359961Y413560D01*
X361271Y414436D01*
X362727Y415039D01*
X364273Y415346D01*
X365849D01*
X367394Y415039D01*
D02*
G37*
G36*
X552333Y355193D02*
X553789Y354590D01*
X555100Y353714D01*
X556214Y352600D01*
X557090Y351289D01*
X557693Y349833D01*
X558000Y348288D01*
Y347500D01*
Y346712D01*
X557693Y345166D01*
X557090Y343711D01*
X556214Y342400D01*
X555100Y341286D01*
X553789Y340410D01*
X552333Y339807D01*
X550788Y339500D01*
X549212D01*
X547667Y339807D01*
X546211Y340410D01*
X544900Y341286D01*
X543786Y342400D01*
X542910Y343711D01*
X542307Y345166D01*
X542000Y346712D01*
Y347500D01*
Y348288D01*
X542307Y349833D01*
X542910Y351289D01*
X543786Y352600D01*
X544900Y353714D01*
X546211Y354590D01*
X547667Y355193D01*
X549212Y355500D01*
X550788D01*
X552333Y355193D01*
D02*
G37*
G36*
X367334Y297693D02*
X368789Y297090D01*
X370100Y296214D01*
X371214Y295100D01*
X372090Y293789D01*
X372693Y292334D01*
X373000Y290788D01*
Y290000D01*
Y289212D01*
X372693Y287667D01*
X372090Y286211D01*
X371214Y284900D01*
X370100Y283786D01*
X368789Y282910D01*
X367334Y282307D01*
X365788Y282000D01*
X364212D01*
X362667Y282307D01*
X361211Y282910D01*
X359900Y283786D01*
X358786Y284900D01*
X357910Y286211D01*
X357307Y287667D01*
X357000Y289212D01*
Y290000D01*
Y290788D01*
X357307Y292334D01*
X357910Y293789D01*
X358786Y295100D01*
X359900Y296214D01*
X361211Y297090D01*
X362667Y297693D01*
X364212Y298000D01*
X365788D01*
X367334Y297693D01*
D02*
G37*
D51*
X365849Y415346D02*
X367394Y415039D01*
X368850Y414436D01*
X370160Y413560D01*
X371275Y412446D01*
X372150Y411136D01*
X372753Y409680D01*
X373061Y408134D01*
Y407346D02*
Y408134D01*
Y406558D02*
Y407346D01*
X372753Y405013D02*
X373061Y406558D01*
X372150Y403557D02*
X372753Y405013D01*
X371275Y402247D02*
X372150Y403557D01*
X370160Y401132D02*
X371275Y402247D01*
X368850Y400257D02*
X370160Y401132D01*
X367394Y399654D02*
X368850Y400257D01*
X365849Y399346D02*
X367394Y399654D01*
X364273Y399346D02*
X365849D01*
X362727Y399654D02*
X364273Y399346D01*
X361271Y400257D02*
X362727Y399654D01*
X359961Y401132D02*
X361271Y400257D01*
X358847Y402247D02*
X359961Y401132D01*
X357971Y403557D02*
X358847Y402247D01*
X357368Y405013D02*
X357971Y403557D01*
X357061Y406558D02*
X357368Y405013D01*
X357061Y406558D02*
Y407346D01*
Y408134D01*
X357368Y409680D01*
X357971Y411136D01*
X358847Y412446D01*
X359961Y413560D01*
X361271Y414436D01*
X362727Y415039D01*
X364273Y415346D01*
X365849D01*
X365788Y298000D02*
X367334Y297693D01*
X368789Y297090D01*
X370100Y296214D01*
X371214Y295100D01*
X372090Y293789D01*
X372693Y292334D01*
X373000Y290788D01*
Y290000D02*
Y290788D01*
Y289212D02*
Y290000D01*
X372693Y287667D02*
X373000Y289212D01*
X372090Y286211D02*
X372693Y287667D01*
X371214Y284900D02*
X372090Y286211D01*
X370100Y283786D02*
X371214Y284900D01*
X368789Y282910D02*
X370100Y283786D01*
X367334Y282307D02*
X368789Y282910D01*
X365788Y282000D02*
X367334Y282307D01*
X364212Y282000D02*
X365788D01*
X362667Y282307D02*
X364212Y282000D01*
X361211Y282910D02*
X362667Y282307D01*
X359900Y283786D02*
X361211Y282910D01*
X358786Y284900D02*
X359900Y283786D01*
X357910Y286211D02*
X358786Y284900D01*
X357307Y287667D02*
X357910Y286211D01*
X357000Y289212D02*
X357307Y287667D01*
X357000Y289212D02*
Y290000D01*
Y290788D01*
X357307Y292334D01*
X357910Y293789D01*
X358786Y295100D01*
X359900Y296214D01*
X361211Y297090D01*
X362667Y297693D01*
X364212Y298000D01*
X365788D01*
X550788Y355500D02*
X552333Y355193D01*
X553789Y354590D01*
X555100Y353714D01*
X556214Y352600D01*
X557090Y351289D01*
X557693Y349833D01*
X558000Y348288D01*
Y347500D02*
Y348288D01*
Y346712D02*
Y347500D01*
X557693Y345166D02*
X558000Y346712D01*
X557090Y343711D02*
X557693Y345166D01*
X556214Y342400D02*
X557090Y343711D01*
X555100Y341286D02*
X556214Y342400D01*
X553789Y340410D02*
X555100Y341286D01*
X552333Y339807D02*
X553789Y340410D01*
X550788Y339500D02*
X552333Y339807D01*
X549212Y339500D02*
X550788D01*
X547667Y339807D02*
X549212Y339500D01*
X546211Y340410D02*
X547667Y339807D01*
X544900Y341286D02*
X546211Y340410D01*
X543786Y342400D02*
X544900Y341286D01*
X542910Y343711D02*
X543786Y342400D01*
X542307Y345166D02*
X542910Y343711D01*
X542000Y346712D02*
X542307Y345166D01*
X542000Y346712D02*
Y347500D01*
Y348288D01*
X542307Y349833D01*
X542910Y351289D01*
X543786Y352600D01*
X544900Y353714D01*
X546211Y354590D01*
X547667Y355193D01*
X549212Y355500D01*
X550788D01*
X360552Y427215D02*
X361607D01*
X358459Y426939D02*
X360552Y427215D01*
X356421Y426393D02*
X358459Y426939D01*
X354471Y425585D02*
X356421Y426393D01*
X352643Y424530D02*
X354471Y425585D01*
X350969Y423245D02*
X352643Y424530D01*
X349477Y421753D02*
X350969Y423245D01*
X348192Y420079D02*
X349477Y421753D01*
X347137Y418251D02*
X348192Y420079D01*
X346329Y416301D02*
X347137Y418251D01*
X345783Y414263D02*
X346329Y416301D01*
X345508Y412170D02*
X345783Y414263D01*
X345508Y411114D02*
Y412170D01*
Y411114D02*
X345729Y285768D01*
X345729Y284818D01*
X345965Y282933D01*
X346432Y281091D01*
X347125Y279322D01*
X348031Y277652D01*
X349137Y276107D01*
X350426Y274711D01*
X351878Y273486D01*
X353470Y272450D01*
X355179Y271620D01*
X356978Y271007D01*
X358838Y270622D01*
X359810Y270535D01*
X359863Y270517D01*
X359917Y270505D01*
X360000Y270498D01*
X361004D02*
X549050Y270498D01*
X549147Y270518D01*
X549239Y270556D01*
X549355Y270645D01*
X570208Y291498D01*
X570308Y291497D01*
X570494Y291573D01*
X570637Y291714D01*
X570715Y291899D01*
Y292000D01*
X570715Y407061D02*
X570738Y407130D01*
X570751Y407226D01*
Y407299D01*
X570732Y407396D02*
X570751Y407299D01*
X570694Y407487D02*
X570732Y407396D01*
X570605Y407605D02*
X570694Y407487D01*
X551108Y427101D02*
X570605Y407605D01*
X551026Y427157D02*
X551108Y427101D01*
X550934Y427195D02*
X551026Y427157D01*
X550787Y427215D02*
X550934Y427195D01*
X361607Y427215D02*
X549000Y427215D01*
X550787D01*
X570715Y407061D02*
X570715Y292000D01*
X360000Y270498D02*
X361004D01*
D52*
X353126Y330992D02*
D03*
Y365008D02*
D03*
D53*
X374228Y330992D02*
D03*
Y365008D02*
D03*
D54*
X478000Y333000D02*
D03*
Y323000D02*
D03*
Y313000D02*
D03*
X488000Y333000D02*
D03*
Y323000D02*
D03*
D55*
Y313000D02*
D03*
D56*
X541000Y320213D02*
D03*
X526858Y306071D02*
D03*
X519787Y299000D02*
D03*
X543000Y377287D02*
D03*
X521787Y398500D02*
D03*
X535929Y384358D02*
D03*
X543000Y419713D02*
D03*
X564213Y398500D02*
D03*
D57*
X533929Y313142D02*
D03*
X528858Y391429D02*
D03*
D58*
X541000Y277787D02*
D03*
X562213Y299000D02*
D03*
D59*
X383500Y335000D02*
D03*
X465000Y367500D02*
D03*
X501463Y359963D02*
D03*
X441083Y302000D02*
D03*
X457000Y316500D02*
D03*
X406000Y387500D02*
D03*
X381000Y375500D02*
D03*
D60*
X383000Y347500D02*
D03*
X503000Y375500D02*
D03*
X526000Y352000D02*
D03*
X435000Y353500D02*
D03*
X486500Y345000D02*
D03*
X459500Y294000D02*
D03*
X422500Y295000D02*
D03*
X488422Y391578D02*
D03*
X498500Y396000D02*
D03*
X473000Y412500D02*
D03*
X419500Y404000D02*
D03*
X399000Y319000D02*
D03*
X381000Y306500D02*
D03*
X406000Y360000D02*
D03*
X391000Y375000D02*
D03*
X384000Y356000D02*
D03*
M02*
